<?xml version="1.0" encoding="UTF-8"?>
<!DOCTYPE svg PUBLIC "-//W3C//DTD SVG 1.1//EN"
 "http://www.w3.org/Graphics/SVG/1.1/DTD/svg11.dtd">
<svg xmlns="http://www.w3.org/2000/svg" version="1.1"
     width="180mm" height="25mm"
     viewBox="0 0 19 1" preserveAspectRatio="none"
     shape-rendering="crispEdges" stroke="none">
<rect width=".89" height=".96" x="0" y="0" fill="#000000" />
<rect width=".89" height=".96" x="1" y="0" fill="#FFFF74" />
<rect width=".89" height=".96" x="2" y="0" fill="#FF9BFF" />
<rect width=".89" height=".96" x="3" y="0" fill="#00D3FF" />
<rect width=".89" height=".96" x="4" y="0" fill="#E2630D" />
<rect width=".89" height=".96" x="5" y="0" fill="#007E00" />
<rect width=".89" height=".96" x="6" y="0" fill="#0050E6" />
<rect width=".89" height=".96" x="7" y="0" fill="#AC0047" />
<rect width=".89" height=".96" x="8" y="0" fill="#00FFC8" />
<rect width=".89" height=".96" x="9" y="0" fill="#006468" />
<rect width=".89" height=".96" x="10" y="0" fill="#FFD5C4" />
<rect width=".89" height=".96" x="11" y="0" fill="#6C5200" />
<rect width=".89" height=".96" x="12" y="0" fill="#7A7581" />
<rect width=".89" height=".96" x="13" y="0" fill="#44005C" />
<rect width=".89" height=".96" x="14" y="0" fill="#9E9E77" />
<rect width=".89" height=".96" x="15" y="0" fill="#FF5C78" />
<rect width=".89" height=".96" x="16" y="0" fill="#8197F1" />
<rect width=".89" height=".96" x="17" y="0" fill="#003200" />
<rect width=".89" height=".96" x="18" y="0" fill="#C721DD" />
</svg>